# xmcd
#
# Track frame offsets:
# 150
# 20425
# 41160
# 79070
# 100335
# 121787
# 136067
# 158631
# 193413
# 211116
#
# Disc length: 3197 seconds
#
#
# Revision: 0
# Processed by: cddbd v1.5.1PL2 Copyright (c) Steve Scherf et al.
# Submitted via: FreeRIP 2.944 
#
DISCID=7e0c7b0a
DTITLE=Buddy Guy - Damn Right, I've got the blues
DYEAR=1991
DGENRE=Blues
TTITLE0=Damn Right, I've got the blues
TTITLE1=Where is the next one coming from
TTITLE2=Five long Years
TTITLE3=Mustang Sally
TTITLE4=There is something on your mind
TTITLE5=Early in the morning
TTITLE6=Too broke to spend the night
TTITLE7=Black Night
TTITLE8=Let me love you baby
TTITLE9=Rememberin' Stevie
EXTD=Them good blues!!!\nLabel: Silverstone Records\nPrinted: Holland by Virgin
EXTT0=
EXTT1=
EXTT2=
EXTT3=
EXTT4=
EXTT5=
EXTT6=
EXTT7=
EXTT8=
EXTT9=
PLAYORDER=
